PathFileType	4	(X/Y/Z)	C:\Users\willi\Desktop\Data_PaperCallum_v2\17_Akif\Gait02\marker_experimental_temp.trc
DataRate	CameraRate	NumFrames	NumMarkers	Units	OrigDataRate	OrigDataStartFrame	OrigNumFrames
100.000000	100.000000	7	27	mm	100.000000	125	167
Frame#	Time	C7			T10			Clav			Sternum			Right_Back			PCL_CRAN			PCL_RECHTS			PCL_LINKS			RCL_UL_CRAN			RCL_UL_POST			RCL_UL_ANT			RCL_LL_CRAN			RCL_LL_POST			RCL_LL_ANT			Right_Heel			Right_Toe			Right_M5			LCL_UL_CRAN			LCL_UL_POST			LCL_UL_ANT			LCL_LL_CRAN			LCL_LL_POST			LCL_LL_ANT			Left_Heel			Left_Toe			Left_M5			*26			
		X1	Y1	Z1	X2	Y2	Z2	X3	Y3	Z3	X4	Y4	Z4	X5	Y5	Z5	X6	Y6	Z6	X7	Y7	Z7	X8	Y8	Z8	X9	Y9	Z9	X10	Y10	Z10	X11	Y11	Z11	X12	Y12	Z12	X13	Y13	Z13	X14	Y14	Z14	X15	Y15	Z15	X16	Y16	Z16	X17	Y17	Z17	X18	Y18	Z18	X19	Y19	Z19	X20	Y20	Z20	X21	Y21	Z21	X22	Y22	Z22	X23	Y23	Z23	X24	Y24	Z24	X25	Y25	Z25	X26	Y26	Z26	X27	Y27	Z27	

126	1.25	-237.1542510986329	1382.688720703125	250.0193023681641	-206.9971160888672	1165.547607421875	249.3144226074219	-382.6452331542969	1314.33349609375	259.09033203125	-449.0939941406251	1153.587890625	264.6366577148438	-210.9214324951173	1323.535034179688	130.1153106689453	-223.5870971679688	996.82958984375	245.3184967041016	-215.8933105468751	935.9314575195313	224.9861755371094	-216.5605621337891	938.0989990234375	275.6999816894531	-316.3457031250001	693.6940307617188	70.07373809814455	-296.2087402343751	631.773193359375	72.50271606445314	-345.5048522949219	635.4378051757813	63.41805267333987	-202.0554504394532	384.3249206542969	70.9441604614258	-140.3056030273438	363.8038940429688	69.95228576660158	-173.2728118896485	325.4300231933594	75.70649719238283	101.298225402832	241.7592010498047	163.6172943115234	31.86069488525391	65.78468322753906	161.3633422851563	62.43442916870117	93.31298065185547	105.7842178344727	-385.6266174316407	740.474365234375	423.9165649414063	-387.6747741699219	675.2813110351563	416.7931823730469	-432.7732238769532	695.6969604492188	419.8965759277344	-445.0203857421875	366.5419311523438	384.7595825195313	-426.0497741699219	303.9873962402344	386.2196044921875	-475.0678100585938	308.5959777832031	376.7302551269532	-380.5475463867188	27.07074928283689	299.882568359375	-588.218994140625	27.91915893554684	299.2232666015626	-542.3606567382813	6.907437801361051	362.3649902343751	nan	nan	nan	
127	1.26	-250.9246978759766	1385.068725585938	251.3021240234375	-220.8057556152344	1167.938720703125	250.6359100341797	-396.4106445312501	1316.816040039063	259.4055480957031	-462.8530273437501	1156.0810546875	264.6559448242188	-223.9483947753907	1326.09326171875	131.5324096679688	-237.3704986572266	999.1150512695313	246.5865783691407	-229.6879577636719	938.2112426757813	226.2597808837891	-230.474365234375	940.3792724609375	276.9664611816406	-335.2875976562501	695.4411010742188	70.32598876953126	-316.7978515625001	632.952392578125	73.19204711914064	-365.8314514160157	638.0301513671875	63.35257720947268	-231.2541656494141	385.8571472167969	70.81051635742189	-169.5325469970703	365.9682312011719	68.9093475341797	-201.8760986328125	327.3039245605469	75.9821243286133	75.30233764648438	247.4738006591797	164.6203918457031	4.37577629089356	71.63779449462891	160.0787811279297	35.11586380004883	100.5415344238281	105.0260925292969	-397.1891479492188	741.9349975585938	424.5498352050781	-398.2220458984376	676.759033203125	417.2913208007813	-443.6619567871094	696.3973999023438	420.76611328125	-448.8994140625	366.4835510253906	385.2333374023438	-428.7978820800781	304.1036987304688	385.930908203125	-478.1221008300781	308.3377990722656	378.1391906738282	-380.4546813964844	27.03868865966794	299.7645263671875	-588.2163696289063	28.14510726928707	299.1543579101563	-542.3447875976563	7.120719909667936	362.3453369140626	nan	nan	nan	
128	1.27	-264.5926513671876	1387.497192382813	252.4901885986328	-234.4612884521485	1170.377319335938	251.9601287841797	-410.0383300781251	1319.310791015625	259.6268920898438	-476.4139404296876	1158.567504882813	264.6514282226563	-236.844223022461	1328.6572265625	132.9015045166016	-250.9602813720703	1001.435180664063	247.8757019042969	-243.2669525146485	940.5520629882813	227.4967346191407	-244.1855621337891	942.6671752929688	278.192626953125	-354.0411682128907	697.6600952148438	70.55581665039065	-337.0899658203126	634.7366333007813	73.7863006591797	-385.8492126464844	641.1243896484375	63.28440093994143	-260.3900451660156	387.8113403320313	70.82189941406251	-198.6217346191407	368.4932250976563	68.25962829589845	-230.5913848876953	329.5421447753906	76.34469604492189	48.49271392822265	251.0335540771484	165.8708190917969	-25.98103713989257	76.54004669189453	158.9590301513672	5.39699125289917	106.0560302734375	104.4913864135742	-408.4705505371094	743.3223876953125	424.9404602050781	-408.4240112304688	678.1915893554688	417.6278076171875	-454.2310791015626	697.0034790039063	421.2830200195313	-452.2440490722656	366.4403381347656	385.5714111328125	-431.3045349121094	304.2799072265625	385.677490234375	-480.9624938964844	308.2171630859374	379.2221374511719	-380.3648681640625	27.08301734924314	299.6512451171875	-588.226318359375	28.23634147644039	299.0790710449219	-542.3418579101563	7.216530323028532	362.2990722656251	nan	nan	nan	
129	1.28	-278.1612243652344	1389.928955078125	253.5867767333985	-247.9784088134766	1172.816284179688	253.2791290283203	-423.5356750488282	1321.777954101563	259.7662963867188	-489.7985229492188	1161.012573242188	264.6417236328126	-249.6212615966798	1331.17822265625	134.2277526855469	-264.3796997070313	1003.754455566406	249.1565246582032	-256.6572875976563	942.9170532226563	228.669418334961	-257.7107543945313	944.92822265625	279.3525390625	-372.6447143554688	700.290283203125	70.78250122070315	-357.1668701171876	637.0479125976563	74.25735473632815	-405.6469421386719	644.6541748046875	63.24032211303713	-289.2821960449219	390.1378784179688	70.9611282348633	-227.3997497558594	371.2336730957031	68.16015625000001	-259.2957153320313	332.0479736328125	76.73225402832033	20.89863967895507	252.3903503417969	167.3809661865234	-58.77896118164063	80.27305603027344	158.0678558349609	-26.39224815368652	109.7595596313477	104.2081527709961	-419.5010681152344	744.6262817382813	425.1174926757813	-418.3444519042969	679.5563354492188	417.8276672363281	-464.5252685546876	697.516845703125	421.4833068847657	-455.2555847167969	366.4407958984375	385.7776489257813	-433.6863403320313	304.5497436523438	385.5457763671875	-483.650390625	308.1183776855468	379.7644348144532	-380.3025512695313	27.21508216857908	299.5427856445313	-588.2651977539063	28.20231246948239	299.0060119628907	-542.3513793945313	7.219458580017057	362.2479553222657	nan	nan	nan	
130	1.29	-291.6355285644532	1392.31982421875	254.5958862304688	-261.3725585937501	1175.210083007813	254.5826568603516	-436.9125976562501	1324.178955078125	259.8360595703125	-503.0299682617188	1163.381469726563	264.6436157226563	-262.2944030761719	1333.609985351563	135.5154571533203	-277.6517639160157	1006.037109375	250.3983306884766	-269.8858032226563	945.2687377929688	229.750228881836	-271.0671997070313	947.1283569335938	280.4200134277344	-391.1328125000001	703.2520141601563	71.00860595703128	-377.1205139160157	639.7776489257813	74.59350585937503	-425.3134460449219	648.541259765625	63.21626281738284	-317.8023681640625	392.7435302734375	71.21071624755861	-255.7760620117188	373.9677429199219	68.68161773681642	-287.9246215820313	334.67724609375	77.11235809326173	-7.467158794403081	251.5600891113281	169.1442718505859	-93.62284088134764	82.74050140380859	157.4054565429688	-59.94855880737305	111.684814453125	104.1613693237305	-430.2977294921876	745.8350830078125	425.1205139160156	-428.0362243652344	680.8333740234375	417.9110717773438	-474.5794067382813	697.941650390625	421.4354858398438	-458.0582580566406	366.5068969726563	385.8606567382813	-435.9710693359375	304.9283752441406	385.565185546875	-486.1667175292969	307.9822998046874	379.7470092773438	-380.2841796875	27.43562316894529	299.4339599609375	-588.3385009765625	28.07637214660641	298.9436340332032	-542.3700561523438	7.163256645202604	362.2056274414063	nan	nan	nan	
131	1.3	-305.0226135253907	1394.627197265625	255.5220489501953	-274.6592712402344	1177.515991210938	255.8586578369141	-450.1808776855469	1326.475830078125	259.8483276367188	-516.1318359375001	1165.640014648438	264.6715087890626	-274.8802795410157	1335.91064453125	136.7679443359375	-290.7984924316407	1008.247497558594	251.5704040527344	-282.9780883789063	947.5692749023438	230.7129974365235	-284.2721252441407	949.234619140625	281.3700866699219	-409.5270996093751	706.453857421875	71.22052001953128	-397.0242614746094	642.8018188476563	74.8012619018555	-444.9121093750001	652.69970703125	63.18600082397464	-345.8740844726563	395.5032043457031	71.55650329589845	-283.7344970703125	376.446533203125	69.78934478759767	-316.4580993652344	337.2641906738281	77.48314666748048	-36.60738372802735	248.6095275878906	171.1413879394531	-130.1772003173828	83.95542907714842	156.9195709228516	-95.01290130615234	111.9614639282227	104.3022537231445	-440.8648071289063	746.9364624023438	424.9930725097656	-437.5317382812501	682.0062866210938	417.8872680664063	-484.4133300781251	698.2816162109375	421.2250976562501	-460.7029724121094	366.6555480957031	385.83251953125	-438.1258239746094	305.4161987304688	385.7140197753906	-488.4520874023438	307.8130798339843	379.3224792480469	-380.3181762695313	27.73998069763181	299.3155517578125	-588.4445190429688	27.89846038818356	298.8982849121094	-542.3933715820313	7.080176353454557	362.1782836914063	nan	nan	nan	
132	1.31	-318.3309631347657	1396.811279296875	256.3699340820313	-287.8537292480469	1179.69482421875	257.0937194824219	-463.3539428710938	1328.632690429688	259.8145751953125	-529.1270141601564	1167.754272460938	264.7369384765626	-287.3965759277344	1338.042358398438	137.9874114990235	-303.8403625488282	1010.351013183594	252.6430358886719	-295.9579162597657	949.7813110351563	231.534164428711	-297.3423767089844	951.2159423828125	282.1798706054688	-427.8330078125001	709.7999877929688	71.39297485351565	-416.9145507812501	645.994873046875	74.90216064453128	-464.4686279296876	657.0388793945313	63.11866378784183	-373.4654235839844	398.2757263183594	71.99021148681643	-311.31591796875	378.4435119628906	71.35317993164064	-344.9038696289063	339.6477355957031	77.86705017089845	-66.54041290283203	243.6436767578125	173.3448944091797	-168.1698303222656	84.01209259033202	156.5269012451172	-131.3744506835938	110.7776565551758	104.5624160766602	-451.1974182128907	747.9180297851563	424.7763671875	-446.8420410156251	683.0625610351563	417.7522583007813	-494.0304870605469	698.536376953125	420.9355773925782	-463.1906433105469	366.89794921875	385.7081909179688	-440.095703125	306.0038146972656	385.9347534179688	-490.4530639648438	307.6576843261718	378.7328186035157	-380.4052734375	28.12164688110349	299.1759338378906	-588.5769653320313	27.7038478851318	298.8735046386719	-542.4170532226563	6.995108127593961	362.1666259765626	nan	nan	nan	
